<svg width="60" height="40" xmlns="http://www.w3.org/2000/svg">
 <defs>
  <clipPath id="clip1">
   <path id="svg_1" d="m-0.19141,0.94531l36.94141,0l0,25l-36.94141,0l0,-25zm0,0"/>
  </clipPath>
  <clipPath id="clip2">
   <path id="svg_2" d="m-0.19141,0.94531l36.94141,0l0,25l-36.94141,0l0,-25zm0,0"/>
  </clipPath>
 </defs>
 <g>
  <title>background</title>
  <rect fill="none" id="canvas_background" height="42" width="62" y="-1" x="-1"/>
 </g>
 <g>
  <title>Layer 1</title>
  <g stroke="null" opacity="0.4" id="surface0">
   <path stroke="null" id="svg_3" fill-rule="nonzero" fill="rgb(0.784314%,42.352941%,60.784314%)" d="m59.734381,12.265397c0,6.140449 -13.382944,11.120851 -29.889411,11.120851c-16.512822,0 -29.89575,-4.980403 -29.89575,-11.120851l0,16.289531c0,6.140464 13.382928,11.120851 29.89575,11.120851c16.506467,0 29.889411,-4.980387 29.889411,-11.120851l0,-16.289531"/>
   <g stroke="null" id="svg_4" clip-rule="nonzero" clip-path="url(#clip1)">
    <path stroke="rgb(100%,100%,100%)" id="svg_5" fill="none" stroke-width="0.4" stroke-miterlimit="4" d="m59.734381,12.265381c0,6.140464 -13.382944,11.120867 -29.889411,11.120867c-16.512822,0 -29.89575,-4.980403 -29.89575,-11.120867l0,16.289547c0,6.140464 13.382928,11.120851 29.89575,11.120851c16.506467,0 29.889411,-4.980387 29.889411,-11.120851l0,-16.289547zm0,0"/>
   </g>
   <path stroke="null" id="svg_6" fill-rule="nonzero" fill="rgb(0.784314%,42.352941%,60.784314%)" d="m29.84497,23.386248c16.506467,0 29.889411,-4.980403 29.889411,-11.120851c0,-6.140464 -13.382944,-11.120867 -29.889411,-11.120867c-16.512822,0 -29.89575,4.980403 -29.89575,11.120867c0,6.140449 13.382928,11.120851 29.89575,11.120851"/>
   <g stroke="null" id="svg_7" clip-rule="nonzero" clip-path="url(#clip2)">
    <path stroke="rgb(100%,100%,100%)" id="svg_8" fill="none" stroke-width="0.4" stroke-miterlimit="4" d="m29.84497,23.386248c16.506467,0 29.889411,-4.980403 29.889411,-11.120867c0,-6.140449 -13.382944,-11.120851 -29.889411,-11.120851c-16.512822,0 -29.89575,4.980403 -29.89575,11.120851c0,6.140464 13.382928,11.120867 29.89575,11.120867zm0,0"/>
   </g>
   <path stroke="null" id="svg_9" fill-rule="nonzero" fill="rgb(100%,100%,100%)" d="m23.020178,7.916654l2.463281,3.540933l-9.332507,2.06505l2.044258,-1.621667l-14.424113,-2.362649l3.612383,-2.593451l13.92256,2.253327l1.714137,-1.281543"/>
   <path stroke="null" id="svg_10" fill-rule="nonzero" fill="rgb(100%,100%,100%)" d="m36.149177,16.504802l-1.682396,-3.650271l8.418302,-1.609508l-1.460192,1.251161l14.030493,2.295852l-3.371131,2.575229l-13.941608,-2.508432l-1.993469,1.645969"/>
   <path stroke="null" id="svg_11" fill-rule="nonzero" fill="rgb(100%,100%,100%)" d="m31.546414,5.985229l9.42773,-2.471971l0.114271,3.862835l-2.361703,-0.425144l-4.596408,3.650255l-4.393268,-0.613437l4.748792,-3.5713l-2.939415,-0.431239"/>
   <path stroke="null" id="svg_12" fill-rule="nonzero" fill="rgb(100%,100%,100%)" d="m27.502315,19.833156l-8.976967,1.609524l-0.336476,-3.972172l2.583891,0.540561l4.939239,-4.038985l4.37422,0.710615l-5.275731,4.403396l2.691824,0.747061"/>
  </g>
 </g>
</svg>