<?xml version="1.0" standalone="no"?><!DOCTYPE svg PUBLIC "-//W3C//DTD SVG 1.1//EN" "http://www.w3.org/Graphics/SVG/1.1/DTD/svg11.dtd"><svg width="200" height="200" viewBox="0 0 200 200" version="1.1" xmlns="http://www.w3.org/2000/svg" xmlns:xlink="http://www.w3.org/1999/xlink"><defs><style type="text/css"><![CDATA[
@font-face { font-family: ifont; src: url(http://at.alicdn.com/t/font_1442373896_4754455.eot?#iefix) format(embedded-opentype), url(http://at.alicdn.com/t/font_1442373896_4754455.woff) format(woff), url(http://at.alicdn.com/t/font_1442373896_4754455.ttf) format(truetype), url(http://at.alicdn.com/t/font_1442373896_4754455.svg#ifont) format(svg); }

]]></style></defs><g class="transform-group"><g transform="scale(0.1953125, 0.1953125)"><path d="M702.046892 302.346049c0 24.010857 19.48682 43.497677 43.497677 43.497677 24.01188 0 43.499723-19.48682 43.499723-43.497677s-19.487843-43.497677-43.499723-43.497677C721.533712 258.848373 702.046892 278.335193 702.046892 302.346049zM702.046892 580.732407c0 24.01188 19.48682 43.4987 43.497677 43.4987 24.01188 0 43.499723-19.48682 43.499723-43.4987 0-24.010857-19.487843-43.497677-43.499723-43.497677C721.533712 537.234731 702.046892 556.721551 702.046892 580.732407L702.046892 580.732407zM93.07328 693.828208c0 38.45073 31.144324 69.596078 69.597101 69.596078L458.454992 763.424286l0 48.022737c-8.525164 5.741771-15.832594 13.050224-21.574365 21.575388l-213.314317-0.002047c-24.009833 0-43.497677 19.488867-43.497677 43.499723s19.487843 43.496653 43.497677 43.496653l213.314317 0c14.092973 21.054525 37.929868 34.799574 65.075111 34.799574 27.14115 0 50.978045-13.747095 65.072041-34.799574l230.714615 0c24.01188 0 43.4987-19.485797 43.4987-43.496653s-19.48682-43.499723-43.4987-43.499723L567.027779 833.020364c-5.740748-8.525164-13.049201-15.833617-21.573341-21.574365l0-48.021713L858.639347 763.424286c38.45073 0 69.596078-31.144324 69.596078-69.596078L928.235424 189.252295c0-38.45073-31.143301-69.597101-69.596078-69.597101L162.669358 119.655194c-38.452777 0-69.597101 31.144324-69.597101 69.597101L93.072257 693.828208zM218.347448 206.650547l584.614831 0c21.225417 0 38.277792 17.052374 38.277792 38.278815l0 114.834398c0 21.227464-17.050328 38.278815-38.277792 38.278815l-584.614831 0c-21.227464 0-38.278815-17.051351-38.278815-38.278815L180.068633 244.929362C180.068633 223.702921 197.119985 206.650547 218.347448 206.650547L218.347448 206.650547 218.347448 206.650547zM218.347448 485.036905l584.614831 0c21.225417 0 38.277792 17.051351 38.277792 38.278815l0 114.833375c0 21.22644-17.050328 38.276768-38.277792 38.276768l-584.614831 0c-21.227464 0-38.278815-17.050328-38.278815-38.276768L180.068633 523.316743C180.068633 502.088256 197.119985 485.036905 218.347448 485.036905L218.347448 485.036905 218.347448 485.036905z" fill="#272636"></path></g></g></svg>